<?xml version="1.0" encoding="UTF-8"?>
<svg width="1035px" height="1230px" viewBox="0 0 1035 1230" version="1.1" xmlns="http://www.w3.org/2000/svg" xmlns:xlink="http://www.w3.org/1999/xlink">
    <!-- Generator: Sketch 52.6 (67491) - http://www.bohemiancoding.com/sketch -->
    <title>Twitter Copy Project</title>
    <desc>Created with Sketch.</desc>
    <g id="Page-1" stroke="none" stroke-width="1" fill="none" fill-rule="evenodd">
        <g id="Group-7">
            <path d="M8,177 L730.359065,177.00001 C734.588507,177.00001 738.087201,180.292135 738.344274,184.513757 C769.386433,694.284255 741.230765,1011.26125 653.877272,1135.44475 C566.543041,1259.60086 350.355915,1260.234 5.31589453,1137.34417 L5.31589626,1137.34417 C2.12855752,1136.20896 2.80594139e-05,1133.19136 2.79601262e-05,1129.8079 L-1.22789555e-07,185 C-2.52443823e-07,180.581722 3.58172164,177 7.99999964,177 C7.99999975,177 7.99999989,177 8,177 Z" id="Rectangle" fill="#EEF1FD"></path>
            <path d="M8.44730951,60.0000001 L852.818588,60.0000114 C857.005072,60.0000114 860.483557,63.2277065 860.796242,67.402497 C896.932208,549.868912 864.117688,849.877004 762.352683,967.426772 C660.554487,1085.01488 408.511112,1085.5739 6.22255833,969.103839 L6.2225583,969.103839 C2.80162166,968.113414 0.447342191,964.980843 0.447342062,961.419417 L0.447309407,68 C0.447309248,63.581722 4.02903112,59.9999999 8.44730912,59.9999997 C8.44730926,59.9999997 8.44730936,59.9999997 8.44730951,59.9999997 Z" id="Rectangle" fill="#BBC9FE"></path>
            <path d="M7.99996123,-9.94410594e-06 L1009.81686,-4.3090437e-06 C1013.94291,-4.26838342e-06 1017.39215,3.13797558 1017.78122,7.24564128 C1060.47865,458.036041 1021.65038,738.357318 901.296432,848.20947 C780.82217,958.171434 482.461692,958.646928 6.21499737,849.635949 L6.214997,849.635951 C2.57847316,848.803565 -1.2072053e-07,845.568204 -2.91228464e-07,841.837632 L-3.88467374e-05,7.99998998 C-3.90486774e-05,3.58171198 3.58168279,-1.01866468e-05 7.99996079,-1.03885868e-05 C7.99996092,-1.03885868e-05 7.9999611,-1.03885868e-05 7.99996123,-1.03885868e-05 Z" id="Rectangle" fill="#7A94FD"></path>
        </g>
    </g>
</svg>